<svg width="32" height="31" viewBox="0 0 32 31" fill="none" xmlns="http://www.w3.org/2000/svg">
<path d="M15.502 0.0170002C14.882 -0.0339998 14.318 0.0210003 13.732 0.299C13.4616 0.414533 13.2107 0.571036 12.988 0.763L12.697 0.983L12.684 1.045L11.706 2.078L6.03 7.991L6.028 7.993C5.8966 8.13053 5.7812 8.2825 5.684 8.446L5.537 8.6L3.857 12.366L3.614 12.911L1.974 15.944C1.95654 15.9752 1.94052 16.0073 1.926 16.04C1.726 16.418 1.598 16.814 1.526 17.22L1.523 17.239L0.979 21.199L1.501 22.767C1.90996 24.0013 2.60287 25.1233 3.524 26.041L4.454 26.971C5.08792 27.6095 5.82235 28.1395 6.628 28.54L7.99 29.216L7.993 29.218C9.1589 29.8038 10.4462 30.1073 11.751 30.104H11.753L15 30.096V30.104H23.726C24.616 30.089 25.644 29.636 26.248 28.947C26.4609 28.7532 26.6542 28.5388 26.825 28.307L26.902 28.203L30.22 24.425C30.5396 24.0622 30.7726 23.6316 30.9015 23.1656C31.0304 22.6996 31.0517 22.2104 30.964 21.735L30.847 21.108C30.8336 20.9198 30.8079 20.7328 30.77 20.548V20.543L30.353 18.428L30.359 18.42L29.431 13.752C29.2298 12.7054 28.6511 11.7681 27.805 11.12L24.175 7.893L21.865 3.62L21.847 3.592C21.426 2.92 21.047 2.368 20.533 1.937C20.007 1.495 19.408 1.234 18.653 0.987L17.406 0.547L16.896 0.368L16.889 0.366C16.7598 0.314508 16.6287 0.267809 16.496 0.226C16.1792 0.125272 15.8533 0.0559381 15.523 0.0190003L15.513 0.0180003L15.502 0.0170002ZM23.7 28.104H17V24.927L26.195 23.476L28.895 21.547L28.996 22.093V22.095C29.062 22.461 28.962 22.828 28.72 23.102L25.344 26.946L25.216 27.119L25.214 27.121C25.114 27.258 24.999 27.382 24.874 27.493L24.827 27.535L24.749 27.624L24.746 27.626C24.532 27.873 24.048 28.096 23.7 28.104ZM11.51 19.614L16 24.104L5 21.104L5.79 17.974C5.92 17.414 6.27 16.944 6.76 16.644L11 14.104V18.384C11 18.844 11.18 19.284 11.51 19.614ZM11 14.104L8.395 8.414L13.152 3.461L13.22 3.389L11 14.104ZM18.18 19.544C17.52 19.244 17.18 18.494 17.39 17.794L19.56 10.566L27.372 13.782C27.412 13.896 27.445 14.014 27.468 14.135V14.137L28.221 17.927L28.217 17.933L28.712 20.448L25.805 22.524L25.013 22.65L18.18 19.544ZM19.85 9.604L20 9.104L20.692 5.656L22.584 9.154L25.884 12.088L19.85 9.604ZM3.387 22.104H4.867L15 24.867V28.096L11.75 28.104H11.748C10.7561 28.1068 9.77737 27.8763 8.891 27.431L7.515 26.748L7.512 26.747C6.90219 26.4431 6.34646 26.0411 5.867 25.557L4.937 24.627C4.23794 23.929 3.71162 23.0774 3.4 22.14L3.387 22.104ZM16.18 2.237L16.745 2.435C17.072 2.549 17.518 2.707 17.997 2.876L18.009 2.88L18.021 2.884C18.699 3.106 19.012 3.27 19.248 3.468C19.453 3.64 19.648 3.878 19.941 4.323L19.03 8.86L16.433 17.505C16.2619 18.0746 16.3028 18.6869 16.548 19.2288C16.7932 19.7707 17.2262 20.2055 17.767 20.453L21.997 22.375L16.364 23.052L12.218 18.906C12.149 18.8376 12.0942 18.7561 12.057 18.6663C12.0197 18.5765 12.0007 18.4802 12.001 18.383V14.205L14.498 2.153C14.597 2.098 14.678 2.065 14.751 2.043C14.881 2.005 15.047 1.986 15.328 2.008C15.525 2.03 15.731 2.082 15.9 2.134C15.982 2.15983 16.063 2.18852 16.143 2.22L16.152 2.224L16.18 2.237ZM3.74 16.89L3.757 16.859V16.857L5.407 13.806L7.174 9.84C7.2051 9.76456 7.24871 9.69492 7.303 9.634L7.67 9.233L9.718 13.706L6.246 15.786L6.238 15.791C5.88404 16.0049 5.5762 16.2872 5.3324 16.6213C5.08861 16.9554 4.91375 17.3346 4.818 17.737L4.221 20.104H3.147L3.497 17.55C3.53568 17.3312 3.61107 17.1206 3.72 16.927L3.725 16.918L3.74 16.89Z" fill="black"/>
</svg>
