<svg width="36" height="36" viewBox="0 0 36 36" fill="none" xmlns="http://www.w3.org/2000/svg">
<g clip-path="url(#clip0_101_6)">
<path d="M33.81 8.13L31.63 6.48C31.2928 6.21727 30.8775 6.0746 30.45 6.0746C30.0225 6.0746 29.6072 6.21727 29.27 6.48L10 22.06C8.82365 21.4386 7.46091 21.2681 6.16773 21.5805C4.87455 21.8929 3.73992 22.6667 2.97695 23.7565C2.21398 24.8464 1.87517 26.1773 2.02416 27.4993C2.17316 28.8213 2.79969 30.0435 3.7861 30.9362C4.7725 31.8289 6.0509 32.3307 7.38117 32.3474C8.71144 32.3641 10.0021 31.8946 11.0106 31.027C12.0191 30.1594 12.6762 28.9534 12.8584 27.6356C13.0406 26.3177 12.7353 24.9787 12 23.87L15.9 20.75L29.27 31.52C29.6072 31.7827 30.0225 31.9254 30.45 31.9254C30.8775 31.9254 31.2928 31.7827 31.63 31.52L33.81 29.88L20.94 19L33.81 8.13ZM7.45 29.75C6.88434 29.75 6.33139 29.5823 5.86107 29.268C5.39074 28.9537 5.02417 28.5071 4.8077 27.9845C4.59124 27.4619 4.5346 26.8868 4.64495 26.332C4.75531 25.7773 5.02769 25.2677 5.42767 24.8677C5.82765 24.4677 6.33725 24.1953 6.89204 24.085C7.44683 23.9746 8.02188 24.0312 8.54447 24.2477C9.06707 24.4642 9.51374 24.8307 9.828 25.3011C10.1423 25.7714 10.31 26.3243 10.31 26.89C10.3074 27.6477 10.0052 28.3736 9.46941 28.9094C8.93363 29.4452 8.20771 29.7474 7.45 29.75Z" fill="black"/>
<path d="M14.3 15.24L12 13.38C12.7353 12.2713 13.0406 10.9323 12.8584 9.61445C12.6762 8.2966 12.0191 7.09062 11.0106 6.223C10.0021 5.35539 8.71144 4.88585 7.38117 4.90258C6.0509 4.9193 4.7725 5.42114 3.7861 6.31384C2.79969 7.20654 2.17316 8.42866 2.02416 9.75067C1.87517 11.0727 2.21398 12.4036 2.97695 13.4934C3.73992 14.5833 4.87455 15.3571 6.16773 15.6695C7.46091 15.9819 8.82365 15.8114 10 15.19L12.16 17L14.3 15.24ZM7.45 13.24C6.88434 13.24 6.33139 13.0723 5.86107 12.758C5.39074 12.4437 5.02417 11.9971 4.8077 11.4745C4.59124 10.9519 4.5346 10.3768 4.64495 9.82204C4.75531 9.26726 5.02769 8.75765 5.42767 8.35767C5.82765 7.9577 6.33725 7.68531 6.89204 7.57495C7.44683 7.4646 8.02188 7.52124 8.54447 7.7377C9.06707 7.95417 9.51374 8.32074 9.828 8.79107C10.1423 9.26139 10.31 9.81435 10.31 10.38C10.3074 11.1368 10.0049 11.8617 9.4688 12.3959C8.93273 12.9301 8.20679 13.23 7.45 13.23V13.24Z" fill="black"/>
</g>
<defs>
<clipPath id="clip0_101_6">
<rect width="36" height="36" fill="white"/>
</clipPath>
</defs>
</svg>
